<?xml version="1.0" standalone="no"?>
<!DOCTYPE svg PUBLIC "-//W3C//DTD SVG 20010904//EN"
 "http://www.w3.org/TR/2001/REC-SVG-20010904/DTD/svg10.dtd">
<svg version="1.0" xmlns="http://www.w3.org/2000/svg"
 width="200.000000pt" height="200.000000pt" viewBox="0 0 200.000000 200.000000"
 preserveAspectRatio="xMidYMid meet">

<g transform="translate(0.000000,200.000000) scale(0.100000,-0.100000)"
fill="#000000" stroke="none">
<path d="M313 1882 c-92 -33 -158 -97 -194 -192 -18 -48 -19 -83 -19 -690 0
-629 0 -640 21 -697 26 -68 92 -138 164 -173 l50 -25 665 0 665 0 55 26 c63
30 122 86 153 144 22 40 22 43 22 715 l0 675 -27 52 c-37 70 -89 120 -157 152
l-56 26 -645 2 c-599 2 -649 1 -697 -15z m1369 -80 c27 -13 64 -42 83 -65 66
-77 66 -75 63 -758 l-3 -614 -30 -54 c-16 -30 -48 -67 -69 -83 -81 -59 -85
-59 -757 -56 -608 3 -614 3 -654 25 -52 28 -99 78 -122 128 -17 37 -18 87 -21
644 -2 409 1 621 8 657 12 59 52 120 101 155 66 47 84 48 739 46 l615 -2 47
-23z"/>
<path d="M354 1746 c-54 -25 -94 -69 -113 -125 -15 -46 -16 -1189 0 -1244 6
-21 26 -56 45 -77 66 -73 45 -71 729 -68 552 3 613 5 641 20 44 24 91 81 103
125 15 52 15 1194 0 1246 -13 49 -63 105 -114 128 -37 17 -81 19 -640 19
l-600 0 -51 -24z m1300 -30 c23 -13 51 -42 64 -64 l22 -40 0 -606 c0 -487 -3
-613 -14 -639 -17 -43 -78 -95 -118 -102 -18 -3 -305 -5 -638 -3 l-605 3 -33
23 c-18 13 -41 41 -52 62 -19 38 -20 61 -20 644 0 403 4 614 11 633 14 37 57
82 94 99 24 11 152 13 639 14 l609 0 41 -24z"/>
<path d="M1330 1583 l-65 -4 -67 -67 -68 -66 0 -121 0 -120 -48 50 c-26 28
-100 112 -165 188 l-118 137 -177 0 -177 0 -68 -66 -67 -65 2 -552 3 -552 191
0 192 0 92 88 92 87 2 53 1 52 -37 3 -38 3 0 75 0 74 33 -37 c18 -21 102 -120
186 -220 l153 -183 157 0 156 0 93 93 92 92 0 58 0 57 -35 0 -35 0 0 370 0
370 40 0 41 0 -3 103 -3 102 -145 1 c-80 0 -174 -1 -210 -3z m-794 -89 l44
-35 0 -456 c0 -359 -3 -454 -12 -451 -10 4 -14 105 -16 453 l-2 447 -43 39
c-53 48 -29 51 29 3z m242 19 c6 -21 -201 -18 -218 2 -12 14 -1 15 100 13 80
-2 115 -7 118 -15z m610 -351 c2 -294 -2 -357 -22 -306 -3 9 -6 151 -6 317 l0
301 -32 28 -33 29 45 -23 45 -23 3 -323z m242 353 c0 -21 -213 -21 -250 0 -23
13 -12 14 113 15 115 0 137 -2 137 -15z m-372 -92 l-53 -54 -3 42 c-3 36 1 47
29 75 l33 34 23 -22 23 -22 -52 -53z m-795 -30 c-32 -29 -61 -53 -65 -53 -5 0
-8 21 -8 46 0 33 -3 43 -12 38 -7 -4 7 14 32 40 l44 46 34 -33 34 -32 -59 -52z
m508 -105 c263 -307 364 -429 403 -488 l36 -55 0 368 0 368 108 -3 c87 -2 107
-6 107 -18 0 -10 -12 -16 -37 -18 l-38 -3 0 -415 0 -414 -89 0 -90 0 -237 283
c-362 430 -389 460 -392 443 -2 -9 57 -86 131 -173 140 -165 316 -373 427
-506 l64 -77 128 0 c124 0 167 -11 91 -24 -52 -8 -216 -7 -228 2 -6 4 -146
167 -310 362 l-300 354 -3 -334 c-1 -184 0 -341 3 -347 2 -7 20 -13 40 -13 24
0 35 -4 35 -15 0 -12 -19 -15 -110 -15 l-110 0 0 465 0 465 103 0 103 0 165
-192z m369 129 c0 -50 -17 -77 -73 -118 -52 -38 -67 -37 -67 3 0 26 12 44 62
95 34 35 66 63 70 63 4 0 8 -19 8 -43z m-810 -61 c0 -54 -1 -55 -57 -105 -31
-28 -60 -51 -64 -51 -4 0 -5 18 -2 40 6 41 -2 49 -27 28 -8 -7 19 22 60 65 41
42 78 77 82 77 5 0 8 -24 8 -54z m806 -141 c-3 -8 -24 -23 -48 -34 -24 -11
-53 -28 -65 -37 -23 -16 -23 -16 -23 15 0 26 12 43 68 97 l67 64 3 -46 c2 -26
1 -52 -2 -59z m-868 -120 l-63 -59 -3 43 c-3 35 -6 42 -20 37 -9 -4 19 29 63
71 l80 78 3 -55 3 -55 -63 -60z m315 100 c4 -8 2 -17 -3 -20 -6 -4 -10 3 -10
14 0 25 6 27 13 6z m544 -142 c-11 -12 -22 -12 -52 -4 -21 6 -42 8 -47 5 -25
-15 -1 17 50 69 l57 58 3 -57 c2 -40 -1 -62 -11 -71z m-469 53 c29 -35 52 -68
52 -74 0 -17 -121 -143 -131 -136 -5 3 -9 57 -9 121 0 94 3 120 17 135 9 10
17 18 18 18 1 0 25 -29 53 -64z m-339 -112 c-6 -12 -42 -50 -80 -84 l-69 -61
0 54 0 54 78 76 77 77 3 -47 c2 -26 -2 -57 -9 -69z m821 -26 l0 -62 -29 34
-29 35 26 28 c14 15 27 27 29 27 2 0 3 -28 3 -62z m-337 -35 l66 -76 -61 -66
c-34 -36 -64 -67 -68 -69 -4 -1 -37 31 -74 73 l-68 75 63 70 c35 38 66 70 70
70 3 0 36 -34 72 -77z m-525 -135 c-29 -26 -56 -47 -60 -48 -5 0 -8 19 -8 42
0 33 -3 39 -12 30 -7 -7 -17 -12 -22 -12 -6 0 25 33 69 74 l80 74 3 -56 3 -56
-53 -48z m681 -45 l53 -63 -20 -27 c-11 -16 -40 -47 -65 -71 l-44 -43 -65 73
-66 74 66 72 c52 59 67 71 77 60 6 -7 35 -41 64 -75z m-690 -111 c-34 -31 -66
-59 -71 -61 -6 -2 -8 12 -3 38 5 31 3 41 -6 41 -8 0 20 34 61 75 l75 76 3 -56
3 -55 -62 -58z m19 -129 c-24 -25 -51 -49 -61 -54 -16 -9 -17 -6 -11 32 7 41
7 41 -17 29 -13 -7 10 22 51 64 l75 77 3 -52 c3 -50 1 -54 -40 -96z m795 91
l47 -56 -29 -37 c-16 -20 -43 -49 -61 -66 l-31 -30 -56 58 -56 58 64 65 c35
35 66 64 69 64 3 0 27 -25 53 -56z m-548 -134 l-59 -60 -125 0 -125 0 59 60
59 60 125 0 125 0 -59 -60z m800 0 l-59 -60 -120 0 -120 0 59 60 59 60 120 0
120 0 -59 -60z"/>
</g>
</svg>
